<?xml version="1.0" encoding="utf-8"?>
<!-- Generator: Adobe Illustrator 17.0.0, SVG Export Plug-In . SVG Version: 6.00 Build 0)  -->
<!DOCTYPE svg PUBLIC "-//W3C//DTD SVG 1.1//EN" "http://www.w3.org/Graphics/SVG/1.1/DTD/svg11.dtd">
<svg version="1.1" id="Calque_1" xmlns="http://www.w3.org/2000/svg" xmlns:xlink="http://www.w3.org/1999/xlink" x="0px" y="0px"
	 width="17px" height="43.25px" viewBox="0 0 17 43.25" enable-background="new 0 0 17 43.25" xml:space="preserve">
<title>Fill 1</title>
<desc>Created with Sketch.</desc>
<path id="home" fill="#FFFFFF" d="M12.453,19.923c-0.424-0.365-0.973-0.67-1.63-0.889c-1.478-0.495-3.406-0.473-4.868,0.039
	c-0.659,0.232-1.147,0.513-1.51,0.813c-0.781-1.201-1.582-2.474-2.331-3.704c0.144-0.497,0.708-1.028,1.569-1.464
	c1.251-0.633,3.007-0.996,4.819-0.996c1.811,0,3.567,0.363,4.819,0.996c0.856,0.433,1.418,0.961,1.566,1.455
	C14.098,17.419,13.262,18.708,12.453,19.923 M12.949,12.257V4.582C12.949,2.051,10.957,0,8.5,0S4.051,2.051,4.051,4.582v7.675
	C1.585,13.086,0,14.61,0,16.428c0,0.2,0.054,0.396,0.157,0.566c1.337,2.208,2.448,3.961,3.38,5.362
	c0.022,0.053,0.048,0.103,0.077,0.148c3.525,5.418,4.395,5.495,4.863,5.495h0.001c0.026,0,0.064-0.076,0.089-0.078
	c0.427-0.032,1.214-0.164,4.422-5.008c1.014-1.481,2.27-3.4,3.845-5.904c0.109-0.173,0.167-0.375,0.167-0.581
	C17,14.61,15.415,13.086,12.949,12.257"/>
</svg>
