<?xml version="1.0" encoding="utf-8"?>
<!-- Generator: Adobe Illustrator 17.0.0, SVG Export Plug-In . SVG Version: 6.00 Build 0)  -->
<!DOCTYPE svg PUBLIC "-//W3C//DTD SVG 1.1//EN" "http://www.w3.org/Graphics/SVG/1.1/DTD/svg11.dtd">
<svg version="1.1" id="Calque_1" xmlns="http://www.w3.org/2000/svg" xmlns:xlink="http://www.w3.org/1999/xlink" x="0px" y="0px"
	 width="38.75px" height="16.875px" viewBox="-21.75 0 38.75 16.875" enable-background="new -21.75 0 38.75 16.875"
	 xml:space="preserve">
<title>Fill 1</title>
<desc>Created with Sketch.</desc>
<g id="home">
	<g id="Homepage" transform="translate(-631.000000, -512.000000)">
		<path id="Fill-1" fill="#0055B4" d="M629.173,516.548c-0.365,0.424-0.67,0.973-0.889,1.63c-0.495,1.478-0.473,3.406,0.039,4.868
			c0.232,0.659,0.513,1.147,0.813,1.51c-1.201,0.781-2.474,1.582-3.704,2.331c-0.497-0.144-1.028-0.708-1.464-1.569
			c-0.633-1.251-0.996-3.007-0.996-4.819c0-1.811,0.363-3.567,0.996-4.819c0.433-0.856,0.961-1.418,1.455-1.566
			C626.669,514.903,627.958,515.739,629.173,516.548 M621.507,516.052h-7.675c-2.531,0-4.582,1.992-4.582,4.449
			s2.051,4.449,4.582,4.449h7.675c0.829,2.466,2.353,4.051,4.171,4.051c0.2,0,0.396-0.054,0.566-0.157
			c2.208-1.337,3.961-2.448,5.362-3.38c0.053-0.022,0.103-0.048,0.148-0.077c5.418-3.525,5.495-4.395,5.495-4.863v-0.001
			c0-0.026-0.076-0.064-0.078-0.089c-0.032-0.427-0.164-1.214-5.008-4.422c-1.481-1.014-3.4-2.27-5.904-3.845
			c-0.173-0.109-0.375-0.167-0.581-0.167C623.86,512.001,622.336,513.586,621.507,516.052"/>
	</g>
</g>
</svg>
