<?xml version="1.0" encoding="utf-8"?>
<!-- Generator: Adobe Illustrator 17.0.0, SVG Export Plug-In . SVG Version: 6.00 Build 0)  -->
<!DOCTYPE svg PUBLIC "-//W3C//DTD SVG 1.1//EN" "http://www.w3.org/Graphics/SVG/1.1/DTD/svg11.dtd">
<svg version="1.1" id="Calque_1" xmlns="http://www.w3.org/2000/svg" xmlns:xlink="http://www.w3.org/1999/xlink" x="0px" y="0px"
	 width="38.75px" height="16.875px" viewBox="-21.75 0 38.75 16.875" enable-background="new -21.75 0 38.75 16.875"
	 xml:space="preserve">
<title>Fill 1</title>
<desc>Created with Sketch.</desc>
<g id="home">
	<g id="Homepage" transform="translate(-631.000000, -512.000000)">
		<path id="Fill-1" fill="#0055B4" d="M628.077,524.453c0.365-0.424,0.67-0.973,0.889-1.63c0.495-1.478,0.473-3.406-0.039-4.868
			c-0.232-0.659-0.513-1.147-0.813-1.51c1.201-0.781,2.474-1.582,3.704-2.331c0.497,0.144,1.028,0.708,1.464,1.569
			c0.633,1.251,0.996,3.007,0.996,4.819c0,1.811-0.363,3.567-0.996,4.819c-0.433,0.856-0.961,1.418-1.455,1.566
			C630.581,526.098,629.292,525.262,628.077,524.453 M635.743,524.949h7.675c2.531,0,4.582-1.992,4.582-4.449
			s-2.051-4.449-4.582-4.449h-7.675c-0.829-2.466-2.353-4.051-4.171-4.051c-0.2,0-0.396,0.054-0.566,0.157
			c-2.208,1.337-3.961,2.448-5.362,3.38c-0.053,0.022-0.103,0.048-0.148,0.077c-5.418,3.525-5.495,4.395-5.495,4.863v0.001
			c0,0.026,0.076,0.064,0.078,0.089c0.032,0.427,0.164,1.214,5.008,4.422c1.481,1.014,3.4,2.27,5.904,3.845
			c0.173,0.109,0.375,0.167,0.581,0.167C633.39,529,634.914,527.415,635.743,524.949"/>
	</g>
</g>
</svg>
