<?xml version="1.0" encoding="utf-8"?>
<!-- Generator: Adobe Illustrator 17.0.0, SVG Export Plug-In . SVG Version: 6.00 Build 0)  -->
<!DOCTYPE svg PUBLIC "-//W3C//DTD SVG 1.1//EN" "http://www.w3.org/Graphics/SVG/1.1/DTD/svg11.dtd">
<svg version="1.1" id="Calque_1" xmlns="http://www.w3.org/2000/svg" xmlns:xlink="http://www.w3.org/1999/xlink" x="0px" y="0px"
	 width="72px" height="116.167px" viewBox="0 0 72 116.167" enable-background="new 0 0 72 116.167" xml:space="preserve">
<title>Page 1</title>
<desc>Created with Sketch.</desc>
<g id="home">
	<g id="Homepage" transform="translate(-604.000000, -90.000000)">
		<g id="Page-1" transform="translate(604.000000, 90.000000)">
			<g id="Group-3" transform="translate(1.000000, 55.000000)">
				<g id="Clip-2">
				</g>
				<defs>
					<filter id="Adobe_OpacityMaskFilter" filterUnits="userSpaceOnUse" x="0.295" y="0.25" width="70.64" height="40.75">
						<feColorMatrix  type="matrix" values="1 0 0 0 0  0 1 0 0 0  0 0 1 0 0  0 0 0 1 0"/>
					</filter>
				</defs>
				<mask maskUnits="userSpaceOnUse" x="0.295" y="0.25" width="70.64" height="40.75" id="mask-2">
					<g filter="url(#Adobe_OpacityMaskFilter)">
						<polygon id="path-1" fill="#FFFFFF" points="70.935,0.25 70.935,41 0.296,41 0.296,0.25 						"/>
					</g>
				</mask>
				<path id="Fill-1" mask="url(#mask-2)" fill="#FFFFFF" d="M58.703,28.994c-6.474,6.382-14.993,9.896-23.987,9.896
					c-7.576,0-14.467-1.778-19.928-5.142C9.761,30.652,6.03,26.334,3.652,20.893c0.672,0.158,1.425,0.244,2.25,0.244
					c1.277,0,2.671-0.204,4.049-0.587c0.077-0.021,0.152-0.042,0.228-0.064c0.024-0.007,0.047-0.013,0.071-0.02
					c0.001,0,0.002-0.001,0.004-0.001c2.12-0.61,3.592-1.515,4.262-1.985c0.885-0.599,1.638-1.27,2.177-1.981
					c0.401,0.712,0.849,1.387,1.337,2.027c0.026,0.056,0.056,0.111,0.093,0.163c4.799,6.745,12.386,10.772,20.296,10.772
					c5.338,0,10.077-1.32,14.084-3.923c4.084-2.654,7.197-6.524,9.265-11.507c0.029,0,0.058,0.001,0.087,0.001
					c2.379,0,4.481-0.46,6.037-1.232C66.452,18.867,63.312,24.45,58.703,28.994 M8.071,13.357c1.357-0.404,2.73-0.617,3.972-0.617
					c2.08,0,3.212,0.601,3.384,1.16c0.142,0.464-0.221,1.195-1.022,1.966c-0.686-0.533-1.698-0.831-2.927-0.831
					c-0.846,0-1.759,0.147-2.642,0.425c-2.287,0.721-3.909,2.064-4.355,3.451c-1.086-0.189-1.842-0.597-2.006-1.133
					C2.15,16.724,4.123,14.532,8.071,13.357 M54.426,11.854c1.159,0.979,2.952,1.703,5.088,2.012
					c-3.869,8.708-11.308,13.485-21.093,13.485c-3.032,0-6.013-0.654-8.779-1.87c1.637,0.331,3.369,0.504,5.182,0.504
					C43.776,25.985,51.616,19.968,54.426,11.854 M61.856,11.922c-4.092,0-6.704-1.613-6.704-2.725c0-0.003-0.001-0.006-0.001-0.01
					c0.071-0.36,0.132-0.722,0.184-1.087c1.582,1.058,4.009,1.711,6.828,1.711c2.617,0,4.896-0.564,6.475-1.492
					c-0.037,0.387-0.082,0.773-0.133,1.157C68.186,10.545,65.665,11.922,61.856,11.922 M70.678,9.365
					c0.169-1.405,0.257-2.827,0.257-4.262c0-0.015-0.004-0.029-0.005-0.044c0-0.009,0.001-0.018,0.001-0.028
					c0-2.726-3.77-4.781-8.77-4.781s-8.77,2.055-8.77,4.781c0,0.072,0.004,0.143,0.009,0.213c-0.003,0.03-0.009,0.059-0.009,0.09
					c0,10.05-8.504,18.54-18.569,18.54c-8.58,0-14.919-3.972-17.393-10.897c-0.066-0.186-0.183-0.338-0.326-0.456
					c-0.822-1.212-2.606-1.892-5.062-1.892c-1.449,0-3.036,0.244-4.591,0.707c-4.801,1.429-7.823,4.46-7.028,7.051
					c0.012,0.039,0.029,0.076,0.043,0.114c0.006,0.022,0.007,0.044,0.014,0.065c2.39,7.348,6.822,13.058,13.172,16.969
					C19.454,39.111,26.738,41,34.716,41c9.567,0,18.624-3.734,25.502-10.514c5.744-5.662,9.341-12.847,10.392-20.6
					C70.648,9.715,70.671,9.541,70.678,9.365"/>
			</g>
			<g id="Group-6">
				<path id="Fill-4" fill="#FFFFFF" d="M2.146,52.061c0.002-0.023,0.007-0.045,0.007-0.069v-0.253
					c0.107-0.435,0.59-0.928,1.389-1.358c0.845,1.307,2.851,2.221,5.242,2.221h0.077c1.422,0,2.762-0.324,3.772-0.816
					c0.785-0.382,1.262-0.839,1.551-1.283c0.804,0.472,1.264,1.007,1.336,1.479v0.01c0,0.051,0.008,0.099,0.015,0.148
					c-0.054,1.585-3.737,2.558-6.369,2.558c-0.089,0-0.179-0.001-0.269-0.002C4.927,54.625,2.359,53.142,2.146,52.061
					 M59.792,12.388c5.655,5.663,9.085,12.936,9.85,20.761c-1.32-0.787-3.13-1.312-5.217-1.458
					C61.531,15.428,48.015,3.273,32.641,3.273c-3.717,0-7.212,0.469-10.44,1.372c4.119-1.466,8.751-2.226,13.78-2.226
					C44.914,2.418,53.371,5.959,59.792,12.388 M67.275,39.969c-0.435-0.364-0.997-0.668-1.67-0.887
					c-1.514-0.493-3.488-0.473-4.986,0.039c-0.675,0.231-1.174,0.512-1.547,0.811c-0.8-1.199-1.62-2.468-2.388-3.696
					c0.148-0.496,0.725-1.026,1.606-1.46c1.282-0.632,3.081-0.994,4.935-0.994c0.039,0,0.077,0.002,0.116,0.003
					c0.107,0.018,0.217,0.024,0.331,0.008c1.694,0.053,3.31,0.402,4.488,0.983c0.877,0.432,1.452,0.959,1.604,1.452
					C68.959,37.471,68.103,38.757,67.275,39.969 M36.088,15.465c-12.686,0-20.567,7.913-20.567,20.65v12.706
					c-1.555-1.001-3.845-1.636-6.492-1.682c-2.795-0.049-5.237,0.559-6.875,1.575V38.07c0.016-0.073,0.025-0.149,0.025-0.227
					c0-10.72,3.037-19.04,9.028-24.73c5.309-5.042,12.721-7.707,21.434-7.707c14.228,0,26.759,11.209,29.617,26.269
					c-2.405,0.135-4.46,0.771-5.847,1.729C54.937,23.416,46.231,15.465,36.088,15.465 M9.166,56.831c4.877,0,8.45-1.965,8.497-4.672
					c0.002-0.116-0.005-0.23-0.016-0.343V36.115c0-11.594,6.893-18.516,18.441-18.516c9.985,0,18.42,8.608,18.42,18.797
					c0,0.074,0.008,0.146,0.022,0.216c0.019,0.154,0.07,0.303,0.152,0.436c1.37,2.204,2.508,3.953,3.461,5.351
					c0.023,0.053,0.049,0.103,0.079,0.148c3.61,5.407,4.501,5.484,4.98,5.484h0.001c0.026,0,0.066-0.076,0.091-0.078
					c0.438-0.032,1.243-0.164,4.529-4.998c1.019-1.449,2.278-3.324,3.849-5.754c0.13-0.152,0.218-0.34,0.245-0.549
					c0.004-0.026,0.006-0.052,0.008-0.078c0.001-0.022,0.006-0.042,0.006-0.064c0-0.007,0-0.015,0-0.022c0-0.001,0-0.002,0-0.004
					c0-0.004,0-0.007,0-0.01c-0.009-9.646-3.786-18.734-10.637-25.594C54.471,4.047,45.482,0.284,35.981,0.284
					c-10.249,0-18.989,3.003-25.275,8.686C3.72,15.285,0.027,24.832,0.027,36.58v14.963C0.013,51.651,0.002,51.759,0,51.87
					c-0.041,2.327,3.051,4.856,8.859,4.959C8.962,56.83,9.065,56.831,9.166,56.831"/>
			</g>
		</g>
	</g>
</g>
<path fill="#FFFFFF" d="M24.368,107.173h-3.51v2.678h4.107V111h-5.52v-8.531h5.479v1.16h-4.066v2.408h3.51V107.173z"/>
<path fill="#FFFFFF" d="M30.96,104.542c0.113,0,0.227,0.004,0.34,0.012s0.222,0.02,0.325,0.035s0.198,0.033,0.284,0.051
	s0.158,0.037,0.217,0.061l-0.199,1.377c-0.43-0.098-0.854-0.146-1.271-0.146c-0.469,0-0.847,0.098-1.134,0.293
	s-0.499,0.467-0.636,0.814V111h-1.4v-6.34h1.312l0.064,0.99c0.258-0.344,0.563-0.613,0.917-0.811S30.526,104.542,30.96,104.542z"/>
<path fill="#FFFFFF" d="M37.851,111c-0.039-0.078-0.071-0.17-0.097-0.275s-0.048-0.219-0.067-0.34
	c-0.098,0.102-0.208,0.197-0.331,0.285s-0.26,0.164-0.41,0.23s-0.312,0.119-0.486,0.158s-0.36,0.059-0.56,0.059
	c-0.336,0-0.64-0.047-0.911-0.143s-0.504-0.229-0.697-0.398s-0.343-0.371-0.448-0.602s-0.158-0.48-0.158-0.75
	c0-0.68,0.253-1.199,0.759-1.559s1.231-0.539,2.177-0.539h1.025v-0.416c0-0.336-0.113-0.602-0.34-0.799s-0.547-0.297-0.961-0.297
	c-0.188,0-0.352,0.023-0.492,0.068s-0.258,0.105-0.352,0.184s-0.164,0.17-0.211,0.275s-0.07,0.219-0.07,0.34h-1.4
	c0-0.246,0.058-0.484,0.173-0.717s0.284-0.439,0.507-0.621s0.495-0.328,0.817-0.438s0.69-0.164,1.104-0.164
	c0.375,0,0.723,0.047,1.043,0.139s0.598,0.229,0.832,0.41s0.418,0.408,0.551,0.68s0.199,0.588,0.199,0.951v2.824
	c0,0.277,0.021,0.531,0.062,0.76s0.101,0.426,0.179,0.594v0.1H37.851z M36.163,109.986c0.18,0,0.349-0.021,0.507-0.066
	s0.301-0.104,0.428-0.176s0.236-0.156,0.328-0.25s0.165-0.189,0.22-0.287v-1.189h-0.891c-0.57,0-0.991,0.092-1.263,0.275
	s-0.407,0.445-0.407,0.785c0,0.129,0.021,0.25,0.064,0.361s0.108,0.207,0.196,0.287s0.199,0.143,0.334,0.189
	S35.976,109.986,36.163,109.986z"/>
<path fill="#FFFFFF" d="M45.14,109.283c0-0.105-0.021-0.201-0.064-0.289s-0.12-0.168-0.231-0.24s-0.264-0.141-0.457-0.203
	s-0.44-0.123-0.741-0.182c-0.375-0.078-0.714-0.172-1.017-0.281s-0.562-0.24-0.779-0.393s-0.384-0.328-0.501-0.529
	s-0.176-0.436-0.176-0.701c0-0.258,0.061-0.502,0.182-0.734s0.294-0.438,0.519-0.613s0.498-0.314,0.82-0.418
	s0.683-0.156,1.081-0.156c0.422,0,0.8,0.053,1.134,0.158s0.616,0.25,0.847,0.432s0.407,0.395,0.53,0.641s0.185,0.51,0.185,0.791
	h-1.4c0-0.125-0.027-0.244-0.082-0.359s-0.137-0.219-0.246-0.309s-0.245-0.16-0.407-0.213s-0.349-0.08-0.56-0.08
	s-0.394,0.023-0.548,0.068s-0.282,0.104-0.384,0.176s-0.177,0.156-0.226,0.254s-0.073,0.199-0.073,0.305s0.019,0.201,0.056,0.287
	s0.106,0.164,0.208,0.234s0.242,0.135,0.422,0.191s0.412,0.109,0.697,0.16c0.398,0.07,0.757,0.158,1.075,0.264
	s0.59,0.234,0.814,0.387s0.397,0.334,0.519,0.543s0.182,0.453,0.182,0.734s-0.064,0.539-0.193,0.773s-0.312,0.438-0.551,0.607
	s-0.524,0.301-0.858,0.395s-0.708,0.141-1.122,0.141c-0.461,0-0.867-0.061-1.219-0.184s-0.646-0.285-0.885-0.484
	s-0.419-0.426-0.542-0.68s-0.185-0.512-0.185-0.773h1.359c0.012,0.195,0.062,0.361,0.152,0.498s0.205,0.248,0.346,0.332
	s0.297,0.145,0.469,0.182s0.346,0.055,0.521,0.055c0.434,0,0.764-0.072,0.99-0.219S45.14,109.513,45.14,109.283z"/>
<path fill="#FFFFFF" d="M51.163,111.117c-0.469,0-0.896-0.078-1.283-0.234s-0.718-0.371-0.993-0.645s-0.489-0.596-0.642-0.969
	s-0.229-0.777-0.229-1.211v-0.24c0-0.504,0.081-0.957,0.243-1.359s0.379-0.746,0.65-1.031s0.588-0.504,0.949-0.656
	s0.741-0.229,1.14-0.229c0.461,0,0.867,0.078,1.219,0.232s0.646,0.371,0.882,0.65s0.415,0.609,0.536,0.992s0.182,0.803,0.182,1.26
	v0.592h-4.395c0.023,0.246,0.084,0.475,0.182,0.686s0.226,0.395,0.384,0.549s0.344,0.275,0.557,0.363s0.446,0.131,0.7,0.131
	c0.355,0,0.683-0.07,0.981-0.211s0.542-0.334,0.729-0.58l0.762,0.715c-0.102,0.152-0.232,0.301-0.393,0.443s-0.348,0.27-0.562,0.381
	s-0.456,0.201-0.724,0.27S51.479,111.117,51.163,111.117z M50.993,105.673c-0.195,0-0.377,0.035-0.545,0.105
	s-0.318,0.174-0.451,0.309s-0.245,0.299-0.337,0.492s-0.157,0.412-0.196,0.658h2.971v-0.105c-0.012-0.188-0.048-0.367-0.108-0.541
	s-0.149-0.33-0.267-0.467s-0.265-0.246-0.442-0.328S51.231,105.673,50.993,105.673z"/>
<rect x="18.833" y="114.167" fill="#FFFFFF" width="35" height="2"/>
</svg>
