<?xml version="1.0" encoding="UTF-8"?>
<svg width="72px" height="96px" viewBox="0 0 72 96" version="1.1" xmlns="http://www.w3.org/2000/svg" xmlns:xlink="http://www.w3.org/1999/xlink">
    <!-- Generator: Sketch 46.2 (44496) - http://www.bohemiancoding.com/sketch -->
    <title>Page 1</title>
    <desc>Created with Sketch.</desc>
    <defs>
        <polygon id="path-1" points="70.9345086 0.249858824 70.9345086 40.9999397 0.296483943 40.9999397 0.296483943 0.249858824"></polygon>
    </defs>
    <g id="home" stroke="none" stroke-width="1" fill="none" fill-rule="evenodd">
        <g id="Homepage" transform="translate(-604.000000, -90.000000)">
            <g id="Page-1" transform="translate(604.000000, 90.000000)">
                <g id="Group-3" transform="translate(1.000000, 55.000000)">
                    <mask id="mask-2" fill="white">
                        <use xlink:href="#path-1"></use>
                    </mask>
                    <g id="Clip-2"></g>
                    <path d="M58.7028306,28.9938735 C52.2289772,35.3754029 43.7102013,38.8896456 34.7158478,38.8896456 C27.1402703,38.8896456 20.2492918,37.1118735 14.7874944,33.7480647 C9.76149009,30.6522632 6.0297056,26.3343 3.65212371,20.8933588 C4.3238694,21.0516309 5.07702026,21.1372485 5.90239526,21.1372485 C7.17978319,21.1372485 8.57346422,20.9331529 9.95184353,20.5499838 C10.0292703,20.5294838 10.1039427,20.5077779 10.1798392,20.4863735 C10.2034039,20.4794397 10.2272746,20.4734103 10.2508392,20.4664765 C10.2520634,20.466175 10.2532875,20.4655721 10.2545116,20.4652706 C12.3747185,19.8550941 13.8464384,18.9506824 14.5169599,18.4806897 C15.4023177,17.8816676 16.1548565,17.2105941 16.6940892,16.4997265 C17.0953004,17.2118 17.5427228,17.8870941 18.0311539,18.5265132 C18.0574728,18.5825868 18.0868522,18.6377559 18.1238823,18.6899103 C22.922503,25.4347118 30.5100159,29.4617559 38.4200892,29.4617559 C43.7585547,29.4617559 48.4968866,28.1419176 52.5037961,25.5384176 C56.5881323,22.8848735 59.7008091,19.0139912 61.7689901,14.0309838 C61.7977573,14.0312853 61.8265246,14.0321897 61.8555978,14.0321897 C64.2347099,14.0321897 66.3368608,13.5724471 67.8924341,12.8003809 C66.4519297,18.8668735 63.3120159,24.4504103 58.7028306,28.9938735 M8.07064957,13.3574985 C9.42730043,12.9538294 10.8007832,12.7403882 12.0423651,12.7403882 C14.1224815,12.7403882 15.254503,13.3415206 15.4258823,13.9001456 C15.5681884,14.3644103 15.2046194,15.0954765 14.4034211,15.8660353 C13.7179039,15.3327338 12.7049297,15.0351824 11.4768134,15.0351824 C10.6309341,15.0351824 9.71772716,15.1823 8.83512371,15.4599544 C6.54812802,16.1807706 4.92583922,17.5238221 4.47994698,18.9108882 C3.39444267,18.7218662 2.63823147,18.313675 2.47389095,17.7782632 C2.1504125,16.7240206 4.12341681,14.5320279 8.07064957,13.3574985 M54.4259987,11.8543662 C55.5852573,12.8335426 57.3783134,13.5573735 59.5135159,13.8663809 C55.644322,22.5746603 48.2058478,27.3514618 38.4200892,27.3514618 C35.3882056,27.3514618 32.4068177,26.6969691 29.6414901,25.4814397 C31.2781625,25.8127559 33.0103177,25.9854985 34.8232659,25.9854985 C43.7763047,25.9854985 51.6159901,19.9684471 54.4259987,11.8543662 M61.8555978,11.9218956 C57.7633047,11.9218956 55.1516065,10.308425 55.1516065,9.19720441 C55.1516065,9.19388824 55.1503823,9.19087353 55.1503823,9.18755735 C55.2216884,8.82790294 55.2822832,8.46523382 55.334003,8.10015294 C56.9158953,9.15831471 59.3430547,9.81160147 62.1616323,9.81160147 C64.7788392,9.81160147 67.057878,9.24755 68.6370159,8.31962353 C68.5996797,8.70671176 68.5553047,9.09259412 68.504503,9.47666765 C68.1859211,10.5447779 65.6651151,11.9218956 61.8555978,11.9218956 M70.6779599,9.36452059 C70.847197,7.95966765 70.9347228,6.53732941 70.9347228,5.10232941 C70.9347228,5.08725588 70.9307444,5.07338824 70.9301323,5.05861618 C70.9301323,5.04927059 70.9313565,5.04022647 70.9313565,5.03088088 C70.9313565,2.30528529 67.1613177,0.249858824 62.1616323,0.249858824 C57.161947,0.249858824 53.3919082,2.30528529 53.3919082,5.03088088 C53.3919082,5.10263088 53.3958866,5.17347647 53.4010892,5.24432206 C53.3983349,5.27446912 53.3919082,5.30371176 53.3919082,5.33476324 C53.3919082,15.3845868 44.888128,23.8752044 34.8232659,23.8752044 C26.2435892,23.8752044 19.9037789,19.9036309 17.4297961,12.9782485 C17.3633866,12.7925426 17.2470935,12.6399985 17.1038694,12.522425 C16.2818608,11.3108147 14.4979858,10.6300941 12.0423651,10.6300941 C10.5935978,10.6300941 9.00589095,10.8745868 7.45123578,11.3373441 C2.65016681,12.7660132 -0.371311638,15.7976015 0.422847845,18.3884397 C0.435089224,18.4276309 0.451921121,18.4644103 0.465386638,18.5026971 C0.470895259,18.5244029 0.472425431,18.5464103 0.479464224,18.5681162 C2.8692875,25.9164618 7.30097284,31.6257118 13.6518004,35.5372926 C19.4542142,39.1112265 26.7381409,40.9999397 34.7158478,40.9999397 C44.2824858,40.9999397 53.3395763,37.2656235 60.2180073,30.48555 C65.9622746,24.8233294 69.5590978,17.6383809 70.6103263,9.88576324 C70.6482746,9.71543235 70.6712272,9.54148382 70.6779599,9.36452059" id="Fill-1" fill="#FFFFFF" mask="url(#mask-2)"></path>
                </g>
                <g id="Group-6" fill="#FFFFFF">
                    <path d="M2.14645063,52.0610872 C2.14796962,52.0379214 2.15343797,52.0156701 2.15343797,51.9918947 L2.15343797,51.7389 C2.26067848,51.3036273 2.74341266,50.8110497 3.5420962,50.380654 C4.38726076,51.6879963 6.39262785,52.6015203 8.78412152,52.6015203 L8.86098228,52.6015203 C10.283362,52.6015203 11.6228051,52.2771995 12.6329316,51.7855364 C13.4176405,51.4036059 13.8949063,50.9463866 14.1841215,50.502884 C14.9876658,50.9744294 15.4485266,51.5102904 15.5205266,51.981531 L15.5205266,51.9918947 C15.5205266,52.0424936 15.5284253,52.090654 15.5354127,52.1394241 C15.4813367,53.7247556 11.7984,54.6977182 9.16629873,54.6977182 C9.07698228,54.6977182 8.98766582,54.6968037 8.89713418,54.6955845 C4.92741266,54.6251727 2.35880506,53.1422583 2.14645063,52.0610872 M59.7920203,12.3884775 C65.4475139,18.0509856 68.8770835,25.3247342 69.6417418,33.1495845 C68.3217418,32.3628626 66.5114127,31.8373652 64.4243241,31.6913599 C61.5306532,15.4277663 48.0147038,3.27274492 32.6410329,3.27274492 C28.9240709,3.27274492 25.428881,3.74185187 22.2013367,4.64440267 C26.3205266,3.17825294 30.951919,2.41804973 35.9809823,2.41804973 C44.9144506,2.41804973 53.3706532,5.95906043 59.7920203,12.3884775 M67.2748557,39.9694668 C66.8401215,39.6052155 66.2780962,39.3016219 65.604881,39.0821567 C64.091362,38.5886647 62.1166785,38.609392 60.618957,39.1214775 C59.943919,39.3522209 59.4444759,39.6335631 59.0723241,39.9328893 C58.2724253,38.7340604 57.4521722,37.464515 56.6844759,36.2364241 C56.8321215,35.7407984 57.4096405,35.2107289 58.290957,34.7760658 C59.5726785,34.1444936 61.3714633,33.7820711 63.2261468,33.7820711 C63.2650329,33.7820711 63.3036152,33.7845096 63.3425013,33.7851193 C63.449438,33.803408 63.5597165,33.8095043 63.6730329,33.7930444 C65.3670076,33.8460818 66.9832101,34.1953973 68.1613367,34.7760658 C69.0380962,35.2082904 69.6134886,35.7347021 69.7650835,36.2281941 C68.9594127,37.470916 68.1033114,38.7566166 67.2748557,39.9694668 M36.0876152,15.4649535 C23.4013367,15.4649535 15.5205266,23.3775898 15.5205266,36.1151086 L15.5205266,48.8215364 C13.9650835,47.8202262 11.675362,47.1859107 9.02837468,47.1392743 C6.23374177,47.0905043 3.79121013,47.6983011 2.15343797,48.7145471 L2.15343797,38.0701781 C2.16923544,37.997023 2.17865316,37.9214294 2.17865316,37.8433973 C2.17865316,27.1234348 5.21602025,18.8029588 11.2066025,13.1136273 C16.5151595,8.07171818 23.9272101,5.40643476 32.6410329,5.40643476 C46.8687797,5.40643476 59.3998177,16.6153171 62.2582481,31.6758144 C59.8527797,31.8108465 57.7981975,32.4463813 56.4116658,33.4050176 C54.9370329,23.4156914 46.2308051,15.4649535 36.0876152,15.4649535 M9.16629873,56.831408 C14.0428557,56.831408 17.6158177,54.8665845 17.6629063,52.1592369 C17.6647291,52.0437128 17.6580456,51.9297128 17.6471089,51.8166273 L17.6471089,36.1151086 C17.6471089,24.520638 24.5405772,17.5986433 36.0876152,17.5986433 C46.0722228,17.5986433 54.5077671,26.2068626 54.5077671,36.3955364 C54.5077671,36.4696059 54.515362,36.5415417 54.5293367,36.611039 C54.5481722,36.7652743 54.5992101,36.914023 54.6815392,37.0466166 C56.0510582,39.2504134 57.1890835,40.9997342 58.1430076,42.3979107 C58.1660962,42.4506433 58.1922228,42.5006326 58.2222987,42.5457449 C61.8323241,47.952515 62.7236658,48.0293278 63.2024506,48.0293278 L63.2030582,48.0293278 C63.2291848,48.0293278 63.2686785,47.9531246 63.2945013,47.9512957 C63.7322734,47.9189856 64.5379443,47.7876112 67.8235139,42.9535845 C68.8421468,41.5041995 70.1019949,39.6292957 71.6720203,37.1996326 C71.8023494,37.0472262 71.8895392,36.8594615 71.9174886,36.6506647 C71.9217418,36.6247556 71.9232608,36.5985417 71.9253873,36.5723278 C71.9266025,36.5506861 71.9317671,36.5299588 71.9317671,36.5080123 C71.9317671,36.5006968 71.9314633,36.4933813 71.9314633,36.4860658 C71.9314633,36.4848465 71.9317671,36.4836273 71.9317671,36.482408 C71.9317671,36.4787503 71.9314633,36.4753973 71.9314633,36.4720444 C71.9220456,26.8262422 68.1455392,17.7382476 61.2942987,10.8781299 C54.4713114,4.04666471 45.4816405,0.284359893 35.9809823,0.284359893 C25.7320709,0.284359893 16.9921215,3.28768075 10.7056405,8.9700016 C3.71951392,15.2845043 0.0268556962,24.8318519 0.0268556962,36.5799481 L0.0268556962,51.5426005 C0.0125772152,51.6505043 0.00224810127,51.7593225 0.000425316456,51.8696647 C-0.0402835443,54.1969107 3.05115949,56.725638 8.85976709,56.8286647 C8.96245063,56.8304936 9.06452658,56.831408 9.16629873,56.831408" id="Fill-4"></path>
                </g>
            </g>
        </g>
    </g>
</svg>