<?xml version="1.0" encoding="utf-8"?>
<!-- Generator: Adobe Illustrator 17.0.0, SVG Export Plug-In . SVG Version: 6.00 Build 0)  -->
<!DOCTYPE svg PUBLIC "-//W3C//DTD SVG 1.1//EN" "http://www.w3.org/Graphics/SVG/1.1/DTD/svg11.dtd">
<svg version="1.1" id="Calque_1" xmlns="http://www.w3.org/2000/svg" xmlns:xlink="http://www.w3.org/1999/xlink" x="0px" y="0px"
	 width="30.542px" height="47px" viewBox="0 0 30.542 47" enable-background="new 0 0 30.542 47" xml:space="preserve">
<rect x="45.375" y="1.5" fill="#754545" width="43.25" height="88.5"/>
<g id="home">
	<g id="Homepage" transform="translate(-631.000000, -512.000000)">
		<path id="Fill-1" fill="#FFFFFF" d="M691.547,530.077c0.424,0.365,0.973,0.67,1.63,0.889c1.478,0.495,3.406,0.473,4.868-0.039
			c0.659-0.232,1.147-0.513,1.51-0.813c0.781,1.201,1.582,2.474,2.331,3.704c-0.144,0.497-0.708,1.028-1.569,1.464
			c-1.251,0.633-3.007,0.996-4.819,0.996c-1.811,0-3.567-0.363-4.819-0.996c-0.856-0.433-1.418-0.961-1.566-1.455
			C689.902,532.581,690.738,531.292,691.547,530.077 M691.051,537.743v7.675c0,2.531,1.992,4.582,4.449,4.582
			s4.449-2.051,4.449-4.582v-7.675c2.466-0.829,4.051-2.353,4.051-4.171c0-0.2-0.054-0.396-0.157-0.566
			c-1.337-2.208-2.448-3.961-3.38-5.362c-0.022-0.053-0.048-0.103-0.077-0.148c-3.525-5.418-4.395-5.495-4.863-5.495h-0.001
			c-0.026,0-0.064,0.076-0.089,0.078c-0.427,0.032-1.214,0.164-4.422,5.008c-1.014,1.481-2.27,3.4-3.845,5.904
			c-0.109,0.173-0.167,0.375-0.167,0.581C687,535.39,688.585,536.914,691.051,537.743"/>
	</g>
</g>
<path fill="none" stroke="#FFFFFF" stroke-width="2" stroke-miterlimit="10" d="M57.042,21.433V80.46
	c0,4.125,3.344,7.469,7.469,7.469s7.469-3.344,7.469-7.469V21.273"/>
<path stroke="#FFFFFF" stroke-width="2" stroke-miterlimit="10" d="M67.979,33.122v44.076c0,1.916-1.553,3.469-3.469,3.469
	s-3.469-1.553-3.469-3.469V33.196c0,0,1.208,1.304,3.333,1.304S67.979,33.122,67.979,33.122z"/>
<g id="home_1_">
	<g id="Homepage_1_" transform="translate(-631.000000, -512.000000)">
		<path id="Fill-1_1_" d="M691.859,525.812c0.522,0.548,1.594,1.391,2.257,1.608c0.893,0.299,2.059,0.286,2.943-0.024
			c0.398-0.14,1.732-0.978,2.237-1.522l-0.111-0.208c-0.093-0.142-0.183-0.279-0.27-0.41c-0.013-0.032-0.029-0.062-0.047-0.09
			c-2.131-3.276-3.051-3.167-3.334-3.167l0,0c-0.015,0,0.003-0.001-0.012,0c-0.258,0.019-1.119-0.034-3.058,2.895
			c-0.156,0.227-0.32,0.471-0.496,0.734L691.859,525.812z"/>
	</g>
</g>
<g>
	<g id="home_3_">
		<g id="Homepage_3_" transform="translate(-631.000000, -512.000000)">
			<g id="Fill-1_3_">
				<path fill="#FFFFFF" d="M638.832,516.429c0.838,0.436,1.714,0.905,2.549,1.366c0.071,0.327-0.083,0.801-0.433,1.314
					c-0.512,0.75-1.394,1.504-2.42,2.069c-1.027,0.565-2.135,0.908-3.042,0.94c-0.624,0.022-1.109-0.103-1.346-0.34
					c0.041-0.931,0.097-1.902,0.165-2.827c0.3,0.056,0.664,0.064,1.11-0.011c0.989-0.166,2.088-0.756,2.771-1.498
					C638.489,517.112,638.705,516.768,638.832,516.429 M641.507,520.618c1.139-1.24,1.561-2.598,0.991-3.629
					c-0.064-0.116-0.16-0.213-0.276-0.277c-1.674-0.928-2.985-1.623-4.022-2.146c-3.331-1.743-3.818-1.572-4.07-1.457
					c-0.015,0.006-0.061-0.025-0.075-0.017l0,0c-0.265,0.146-0.734,0.462-1.04,4.633c-0.002,0.035-0.001,0.071,0.003,0.108
					c-0.09,1.085-0.173,2.425-0.241,4.094c-0.005,0.129,0.026,0.257,0.088,0.37c0.568,1.03,1.942,1.399,3.598,1.099l2.397,4.35
					c0.79,1.435,2.559,1.975,3.952,1.208s1.881-2.552,1.091-3.986L641.507,520.618"/>
			</g>
		</g>
	</g>
	<g>
		<path fill="#FFFFFF" d="M20.265,43.665L1.785,10.121l1.133-0.624l18.48,33.544c1.114,2.021,3.665,2.76,5.686,1.646
			c2.021-1.114,2.76-3.665,1.646-5.686L10.3,5.548l1.133-0.624l18.43,33.453c1.458,2.647,0.492,5.986-2.155,7.444
			C25.062,47.279,21.723,46.312,20.265,43.665z"/>
	</g>
	<g>
		<path d="M10.791,14.932c1.204-0.664,1.482-1.78,1.482-1.78L26.012,38.09c0.598,1.086,0.203,2.451-0.883,3.049
			c-1.086,0.598-2.451,0.203-3.049-0.883L8.318,15.276C8.318,15.276,9.586,15.595,10.791,14.932z"/>
		<path fill="#FFFFFF" d="M21.514,40.567L7.034,14.285l1.442,0.363c0.01,0.002,1.048,0.242,2.003-0.284
			c0.925-0.509,1.158-1.34,1.166-1.369l0.398-1.601l14.535,26.383c0.77,1.396,0.259,3.159-1.137,3.928
			C24.045,42.474,22.282,41.964,21.514,40.567z M11.104,15.498c-0.576,0.318-1.162,0.446-1.657,0.486l13.2,23.96
			c0.425,0.771,1.398,1.053,2.17,0.628c0.771-0.425,1.053-1.398,0.628-2.17L12.277,14.501
			C12.006,14.847,11.627,15.209,11.104,15.498z"/>
	</g>
	<g id="home_2_">
		<g id="Homepage_2_" transform="translate(-631.000000, -512.000000)">
			<g id="Fill-1_2_">
				<path d="M637.205,514.039c-0.181-0.094-0.351-0.181-0.51-0.261c-2.013-1.054-2.484-0.756-2.637-0.686
					c-0.009,0.004,0.002-0.001-0.007,0.004l0,0c-0.16,0.089-0.716,0.314-0.901,2.836c-0.001,0.021,0,0.043,0.002,0.065
					c-0.008,0.102-0.017,0.208-0.025,0.317l0.002,0.153c0.456,0.15,1.473,0.209,1.743,0.164c0.597-0.101,1.262-0.458,1.675-0.906
					c0.308-0.33,0.653-1.142,0.777-1.616L637.205,514.039z"/>
			</g>
		</g>
	</g>
</g>
</svg>
