<?xml version="1.0" encoding="utf-8"?>
<!-- Generator: Adobe Illustrator 17.0.0, SVG Export Plug-In . SVG Version: 6.00 Build 0)  -->
<!DOCTYPE svg PUBLIC "-//W3C//DTD SVG 1.1//EN" "http://www.w3.org/Graphics/SVG/1.1/DTD/svg11.dtd">
<svg version="1.1" id="Calque_1" xmlns="http://www.w3.org/2000/svg" xmlns:xlink="http://www.w3.org/1999/xlink" x="0px" y="0px"
	 width="20.917px" height="19.583px" viewBox="0 0 20.917 19.583" enable-background="new 0 0 20.917 19.583" xml:space="preserve">
<path fill="#1D1D1B" d="M18.81,36.708c-0.005,0.598-0.054,1.189-0.223,1.765c-0.108,0.444-0.264,0.869-0.515,1.252
	c-0.057,0.127-0.134,0.243-0.229,0.344c-0.036,0.064-0.076,0.125-0.134,0.169c-0.052,0.093-0.127,0.164-0.206,0.231
	c-0.045,0.066-0.103,0.121-0.168,0.168c-0.067,0.1-0.171,0.156-0.262,0.226c-0.197,0.197-0.432,0.337-0.68,0.456
	c-0.113,0.078-0.239,0.13-0.369,0.171c-0.143,0.107-0.333,0.084-0.482,0.173c-0.148,0.062-0.301,0.108-0.463,0.113
	c-0.084,0.057-0.19,0.012-0.277,0.059c-0.139,0.043-0.281,0.058-0.426,0.055c-0.142,0.041-0.29,0.044-0.436,0.051
	c-1.558,0.074-3.117,0.059-4.675,0.055c-0.187,0-0.374-0.007-0.561-0.008c-0.024-0.001-0.049-0.001-0.073-0.002
	c-0.433-0.003-0.866-0.003-1.299-0.019c-0.609-0.021-1.221-0.044-1.821-0.18c-0.635-0.145-1.23-0.379-1.762-0.76
	c-0.043-0.029-0.077-0.069-0.115-0.104h0c-0.256-0.156-0.448-0.382-0.647-0.6c-0.088-0.096-0.185-0.188-0.238-0.313
	c-0.007-0.008-0.014-0.015-0.022-0.023c-0.081-0.098-0.155-0.199-0.202-0.318c-0.019-0.038-0.038-0.076-0.057-0.114
	c-0.153-0.249-0.261-0.516-0.344-0.793c-0.229-0.704-0.307-1.431-0.307-2.168c-0.033-0.321-0.037-0.645-0.029-0.967
	c0-0.038,0-0.075,0-0.112c-0.013-0.169-0.016-0.338-0.003-0.508c-0.004-0.047-0.011-0.094-0.012-0.142
	c-0.001-1.152-0.001-2.304-0.001-3.457c0.001-0.057,0.01-0.112,0.014-0.169c0.009-0.787,0.021-1.572,0.148-2.351
	c0.011-0.07,0.033-0.138,0.049-0.207c0.043-0.257,0.13-0.498,0.219-0.743c0.102-0.282,0.226-0.549,0.376-0.806
	c0.032-0.057,0.076-0.108,0.114-0.162c0.074-0.138,0.17-0.259,0.282-0.368c0.223-0.274,0.477-0.517,0.772-0.712
	c0.235-0.162,0.469-0.325,0.738-0.428c0.036-0.027,0.077-0.046,0.123-0.052c0.05-0.031,0.102-0.056,0.162-0.063
	c0.115-0.038,0.23-0.076,0.346-0.114c0.073,0.011,0.135-0.016,0.194-0.054c0.075-0.037,0.153-0.053,0.236-0.057
	c0.042-0.022,0.088-0.03,0.136-0.028c0.115-0.029,0.229-0.055,0.349-0.054c0.188-0.04,0.379-0.035,0.567-0.053
	c0.199-0.019,0.397-0.026,0.596-0.034c0.29-0.044,0.583-0.021,0.875-0.031c0.165-0.006,0.33,0,0.495,0c0.075,0,0.15,0,0.226-0.001
	c0.042-0.004,0.084-0.012,0.127-0.012c1.422-0.002,2.845-0.014,4.267,0.023c0.739,0.021,1.479,0.053,2.199,0.25
	c1.305,0.359,2.279,1.126,2.887,2.344c0.021,0.042,0.035,0.087,0.053,0.131c0.017,0.112,0.058,0.213,0.122,0.306
	c0.01,0.03,0.021,0.061,0.031,0.09c-0.003,0.095,0.028,0.18,0.08,0.258c0.096,0.267,0.148,0.544,0.172,0.826
	c0.029,0.089,0.037,0.182,0.032,0.275c0.048,0.277,0.057,0.557,0.053,0.837c0,0.016,0.002,0.031,0.002,0.047
	c0.046,0.33,0.032,0.663,0.037,0.994c0.02,1.442,0.016,2.883,0.002,4.325c0,0.061-0.009,0.122-0.013,0.184
	C18.843,36.101,18.849,36.406,18.81,36.708z"/>
<path fill="#FFFFFF" d="M17.319,31.48c-0.006-0.297-0.014-0.594-0.017-0.891c-0.001-0.052-0.001-0.105-0.002-0.158
	c-0.032-0.164-0.028-0.33-0.025-0.497c-0.001-0.035-0.003-0.07-0.003-0.106c-0.035-0.171-0.044-0.347-0.056-0.521
	c-0.04-0.05-0.03-0.108-0.03-0.164c-0.091-0.404-0.208-0.797-0.414-1.16c-0.034-0.06-0.101-0.104-0.096-0.184
	c-0.02-0.026-0.04-0.052-0.06-0.077c-0.163-0.159-0.321-0.321-0.489-0.475c-0.204-0.184-0.443-0.312-0.698-0.415
	c-0.046-0.018-0.09-0.043-0.135-0.066c-0.019,0.01-0.037,0.019-0.056,0.033c-0.2-0.012-0.382-0.092-0.573-0.141
	c-0.033-0.008-0.051-0.039-0.056-0.074c-0.046,0.063-0.114,0.052-0.178,0.044c-0.077-0.011-0.157-0.012-0.231-0.041
	c-0.015-0.003-0.029-0.008-0.043-0.013c-0.019-0.027-0.05-0.03-0.079-0.039c-0.089,0.029-0.182,0.045-0.28,0.029
	c-0.033-0.003-0.066-0.004-0.099-0.005c-0.167-0.013-0.334-0.006-0.501-0.013c-0.035-0.005-0.07-0.011-0.106-0.013
	c-1.238-0.117-2.478-0.036-3.717-0.056c-0.596-0.01-1.192-0.021-1.786,0.054c-0.499,0.044-1.002,0.028-1.497,0.115
	c-0.096,0.017-0.191,0.06-0.293,0.034c-0.008-0.003-0.021-0.007-0.023-0.014c-0.003-0.008-0.009-0.012-0.012-0.019
	c-0.013,0.054-0.058,0.071-0.106,0.086l-1.044,0.513c-0.041,0.031-0.084,0.06-0.139,0.062c-0.008-0.004-0.015-0.011-0.023-0.015
	c-0.003,0.028-0.001,0.057-0.023,0.077c-0.142,0.131-0.262,0.281-0.374,0.438c-0.021,0.03-0.048,0.048-0.08,0.054
	c0.001,0.001,0.001,0.003,0.002,0.004c0.006,0.029-0.002,0.055-0.016,0.082c-0.148,0.259-0.261,0.534-0.352,0.819
	c-0.012,0.037-0.03,0.077-0.069,0.094c0.004,0.019,0.014,0.039,0.015,0.057c-0.09,0.253-0.067,0.522-0.102,0.783
	c-0.035,0.249-0.029,0.499-0.032,0.749c-0.002,0.15-0.076,0.295-0.034,0.448c0.011,0.157-0.013,0.312-0.048,0.465
	c-0.001,0.026-0.009,0.052-0.014,0.077c-0.001,0.389-0.002,0.776-0.002,1.165c-0.001,0.832,0.002,1.663,0.006,2.495
	c0.001,0.014,0.011,0.025,0.009,0.04c-0.002,0.237,0.007,0.473-0.004,0.708c-0.001,0.001-0.002,0-0.003,0.002
	c0,0.025,0,0.05,0,0.075c0.068,0.088,0.049,0.202,0.064,0.306c0.002,0.031,0.007,0.062,0.013,0.093
	c0.003,0.021-0.001,0.043-0.001,0.064c0.01,0.027,0.01,0.061,0.012,0.092c0.011,0.164-0.004,0.329,0.013,0.492
	c0.008,0.056,0.016,0.112-0.024,0.162c-0.012,0.014-0.025,0.018-0.038,0.027c0.019,0.141,0.035,0.281,0.042,0.422
	c0.039,0.117,0.054,0.238,0.071,0.358c0.014,0.018,0.027,0.035,0.054,0.044c0.057,0.045,0.062,0.115,0.084,0.177
	c0.102,0.29,0.204,0.58,0.364,0.845c0.005,0.009,0.001,0.019,0.003,0.027c0.024,0.008,0.045,0.026,0.063,0.05
	c0.221,0.272,0.461,0.521,0.756,0.715c0.038,0.026,0.063,0.066,0.056,0.116c0.04-0.008,0.074,0.003,0.103,0.031
	c0.006,0.024,0.021,0.039,0.029,0.06c0.002,0.001,0.005,0.003,0.007,0.004c0.177,0.039,0.338,0.122,0.505,0.191
	c0.045-0.003,0.091,0,0.136-0.003c0.05,0.003,0.1,0.008,0.146,0.029c0.076,0.045,0.16,0.071,0.241,0.104
	c0.056,0.007,0.112,0.014,0.168,0.022c0.013,0.002,0.025,0.002,0.038,0.003c0.01-0.007,0.019-0.016,0.031-0.017
	c0.035-0.005,0.063,0.012,0.093,0.024c0.058,0.004,0.116,0.006,0.173,0.011c0.121-0.027,0.245-0.025,0.368-0.014
	c0.074,0.008,0.147,0.035,0.222,0.034c0.014,0.009,0.029,0.01,0.043,0.019c0.133,0.005,0.266,0.009,0.399,0.013
	c0,0,0.001-0.001,0.001-0.001c0.003,0.001,0.006,0,0.008,0.001c0.083,0.002,0.167,0.003,0.25,0.005
	c0.019-0.004,0.038-0.003,0.057-0.009c0.192,0,0.378-0.075,0.572-0.042c0.108,0.017,0.218,0.013,0.326,0.015
	c0.904,0.003,1.808-0.009,2.711,0.005c0.026,0.01,0.054,0.013,0.08,0.021c0.034-0.017,0.071-0.024,0.109-0.024
	c0.304,0,0.606-0.023,0.909-0.028c0.479-0.008,0.956-0.023,1.434-0.056c0.066-0.004,0.133-0.005,0.197,0.017
	c0.023,0.019,0.018,0.03,0.024,0.046c0.002-0.001,0.005,0,0.007-0.001c0.068-0.115,0.259-0.137,0.377-0.058
	c0.002-0.007,0-0.014,0.003-0.021c0.092-0.08,0.212-0.096,0.321-0.133c0.172-0.058,0.35-0.106,0.517-0.18
	c0.039-0.017,0.076-0.019,0.11-0.001c0.079-0.094,0.191-0.142,0.289-0.211c0.174-0.122,0.323-0.272,0.473-0.421
	c0.043-0.042,0.086-0.088,0.156-0.068c-0.021-0.044,0-0.081,0.024-0.117c0.108-0.16,0.219-0.32,0.295-0.5
	c0.017-0.043,0.049-0.073,0.096-0.081c-0.025-0.039-0.017-0.083-0.002-0.125c0.103-0.299,0.174-0.606,0.231-0.917
	c0.006-0.036,0.016-0.07,0.036-0.097c-0.002-0.016-0.01-0.027-0.01-0.043c0.047-0.129-0.02-0.265,0.029-0.393
	c0.012-0.058,0.005-0.12,0.041-0.172c0.021-0.021,0.033-0.045,0.044-0.07c0.002-0.099-0.004-0.199,0.014-0.297
	c0.001-0.034,0.001-0.068,0.001-0.102c0.006-0.348,0.013-0.695,0.019-1.042c-0.004-0.15,0-0.301,0.008-0.45
	c-0.002-0.671-0.006-1.344-0.007-2.015c-0.001-0.307,0.004-0.614,0.007-0.921C17.319,31.785,17.315,31.633,17.319,31.48z
	 M14.579,34.491c-0.008,0.031-0.022,0.062-0.032,0.093c-0.046,0.227-0.117,0.443-0.227,0.646c-0.136,0.347-0.327,0.66-0.571,0.94
	c-0.161,0.235-0.357,0.437-0.586,0.607c-0.055,0.041-0.107,0.086-0.161,0.13c-0.231,0.211-0.497,0.366-0.784,0.488
	c-0.033,0.032-0.072,0.05-0.118,0.056c-0.061,0.046-0.126,0.083-0.206,0.084c-0.133,0.047-0.266,0.094-0.398,0.14l-0.01,0.003
	h-0.012c-0.678,0.202-1.364,0.211-2.053,0.068c-0.763-0.158-1.438-0.499-2.021-1.018c-0.024-0.022-0.045-0.048-0.068-0.072
	c-0.231-0.2-0.438-0.422-0.595-0.687c-0.146-0.171-0.256-0.363-0.34-0.57c-0.105-0.167-0.178-0.348-0.227-0.54
	c-0.034-0.059-0.054-0.124-0.057-0.193c-0.033-0.055-0.05-0.114-0.051-0.178c-0.045-0.123-0.058-0.25-0.07-0.379
	c-0.001-0.003-0.002-0.007-0.003-0.012c-0.003-0.032-0.016-0.062-0.018-0.095c-0.055-0.364-0.066-0.729,0.001-1.094
	c-0.005-0.066,0-0.131,0.028-0.193c0.077-0.578,0.296-1.104,0.6-1.596c0.152-0.247,0.321-0.479,0.535-0.677
	c0.248-0.283,0.537-0.517,0.86-0.708c0.709-0.455,1.489-0.671,2.329-0.671c1.876,0.001,3.541,1.194,4.145,2.97
	C14.742,32.84,14.788,33.66,14.579,34.491z M14.883,29.918c-0.575,0.001-1.032-0.454-1.031-1.026
	c0.001-0.566,0.462-1.031,1.018-1.028c0.575,0.003,1.033,0.46,1.033,1.028C15.903,29.456,15.445,29.917,14.883,29.918z"/>
<path fill="#FFFFFF" d="M12.294,31.496c-0.032-0.036-0.065-0.074-0.061-0.125c-0.01,0.002-0.018,0.005-0.027,0.007
	c-0.128-0.043-0.221-0.142-0.33-0.217c-0.448-0.309-0.943-0.464-1.487-0.476c-0.153-0.004-0.311,0.039-0.457-0.039
	c-0.008-0.012,0.002-0.018,0-0.028l-0.002,0c-0.008,0.085-0.08,0.085-0.139,0.103c-0.033,0.009-0.072,0.02-0.096-0.002
	c-0.017-0.017-0.032-0.022-0.047-0.03c-0.062,0.018-0.122,0.04-0.182,0.06c-0.003,0.002-0.005,0.004-0.007,0.006
	c-0.096,0.085-0.239,0.089-0.332,0.182c-0.217,0.115-0.424,0.246-0.612,0.404c-0.032,0.027-0.066,0.042-0.105,0.036
	C8.33,31.552,8.18,31.672,8.07,31.823c-0.262,0.361-0.418,0.762-0.493,1.197c-0.005,0.028-0.011,0.056-0.022,0.083
	c-0.01,0.039-0.04,0.062-0.068,0.087c0,0.054,0,0.107,0,0.162c0.036,0.149,0.058,0.3,0.048,0.454
	c-0.006,0.013-0.013,0.027-0.02,0.041c0.042,0.018,0.056,0.057,0.06,0.101c0.011,0.131,0.047,0.257,0.08,0.383
	c-0.003,0.01-0.006,0.008-0.009,0.017c0.018,0.006,0.032,0.021,0.042,0.04c0.054,0.108,0.097,0.22,0.078,0.345
	c0.062-0.013,0.097,0.028,0.124,0.074c0.138,0.226,0.296,0.438,0.477,0.632c0.022,0.022,0.034,0.048,0.036,0.077
	c0.007,0,0.014,0.001,0.021,0c0.165,0.076,0.291,0.207,0.445,0.299c0.423,0.252,0.872,0.407,1.371,0.399
	c0.151-0.003,0.303-0.015,0.453,0.014c0.008,0.008,0.021,0.009,0.03,0.016c0.005-0.006,0.006-0.015,0.013-0.02
	c0.116-0.046,0.241-0.062,0.357-0.105c0.071-0.024,0.142-0.047,0.212-0.071c0.037-0.013,0.069-0.009,0.098,0.007
	c0.004-0.009,0-0.01,0.006-0.021c0.207-0.138,0.435-0.243,0.629-0.401c0.023-0.019,0.047-0.032,0.072-0.036
	c0.142-0.145,0.265-0.311,0.431-0.432c0.01-0.01,0.021-0.02,0.028-0.033c0.014-0.021,0.03-0.036,0.05-0.044
	c-0.027-0.066,0.019-0.112,0.048-0.163c0.573-0.993,0.566-1.984-0.015-2.972C12.554,31.785,12.424,31.639,12.294,31.496z"/>
<path fill="#1D1D1B" stroke="#1D1D1B" stroke-width="0.5" stroke-linecap="round" stroke-linejoin="round" stroke-miterlimit="10" d="
	M76.361,17.104h-3.326V6.462h3.326V17.104z M74.613,5.13h-0.024c-1.203,0-1.984-0.814-1.984-1.844c0-1.051,0.804-1.848,2.031-1.848
	c1.227,0,1.981,0.795,2.005,1.845C76.642,4.314,75.863,5.13,74.613,5.13z M89.667,17.104h-3.771v-5.508
	c0-1.442-0.589-2.425-1.887-2.425c-0.992,0-1.543,0.664-1.801,1.304c-0.096,0.229-0.081,0.549-0.081,0.87v5.759h-3.736
	c0,0,0.049-9.756,0-10.643h3.736v1.67c0.221-0.73,1.414-1.773,3.32-1.773c2.363,0,4.22,1.531,4.22,4.827V17.104z"/>
<g>
	<path fill="#1D1D1B" d="M9.835,18.276c-2.037,0-4.021-0.661-5.587-1.861c-1.735-1.33-2.909-3.258-3.396-5.574
		c-0.137-0.654,0.104-1.317,0.629-1.73c0.307-0.241,0.69-0.374,1.081-0.374c0.189,0,0.375,0.029,0.552,0.089l0.125,0.041
		L3.186,8.621C3.049,7.967,3.29,7.304,3.815,6.89c0.307-0.241,0.69-0.374,1.081-0.374c0.262,0,0.513,0.057,0.749,0.168
		c0.364,0.171,1.225,0.52,2.147,0.741l0.112,0.026L7.883,7.338C7.566,5.609,7.92,4.012,8.878,2.84
		c0.959-1.172,2.449-1.844,4.088-1.844c1.456,0,2.865,0.522,3.967,1.472c0.101,0.004,0.192,0.005,0.278,0.005
		c0.12,0,0.229-0.002,0.339-0.002c0.287,0,0.579,0.013,0.87,0.036c0.666,0.054,1.233,0.473,1.481,1.094
		c0.245,0.61,0.118,1.322-0.321,1.812c-0.049,0.057-0.263,0.303-0.538,0.671c0.038,0.312,0.077,0.57,0.104,0.833
		c0.433,4.22-1.064,6.862-2.396,8.337C15.015,17.175,12.495,18.276,9.835,18.276z M2.488,10.498
		c0.946,4.507,4.549,6.106,7.347,6.106c2.188,0,4.257-0.901,5.675-2.472c1.104-1.223,2.343-3.438,1.974-7.045
		c-0.048-0.469-0.146-0.918-0.29-1.333c0.573-0.82,1.136-1.45,1.142-1.457l0.101-0.112l-0.15-0.013
		c-0.25-0.021-0.495-0.03-0.735-0.03c-0.425,0-0.849,0.031-1.259,0.094c-0.773-0.987-2.01-1.568-3.324-1.568
		c-1.136,0-2.155,0.448-2.794,1.23c-0.671,0.82-0.888,1.94-0.625,3.239C9.718,7.988,9.763,8.729,9.68,9.337
		C9.608,9.3,9.495,9.296,9.372,9.296c-0.04,0-0.08,0-0.121,0c-1.979,0-4.301-1.091-4.324-1.102L4.791,8.129l0.031,0.148
		c0.254,1.21,0.729,2.287,1.415,3.202c-1.792-0.193-3.625-1.056-3.644-1.064L2.457,10.35L2.488,10.498z"/>
	<path fill="#FFFFFF" d="M12.967,1.071c1.439,0,2.83,0.516,3.917,1.454l0.046,0.039l0.06-0.003c0.186-0.01,0.373-0.015,0.56-0.015
		c0.284,0,0.574,0.012,0.864,0.035c0.638,0.052,1.181,0.453,1.418,1.047c0.237,0.594,0.119,1.259-0.307,1.735
		c-0.002,0.002-0.232,0.262-0.543,0.676l-0.04,0.054l0.013,0.066c0.051,0.249,0.09,0.507,0.116,0.766
		c0.429,4.191-1.056,6.815-2.377,8.278c-1.72,1.905-4.221,2.998-6.86,2.998c-2.021,0-3.99-0.655-5.542-1.845
		c-1.721-1.32-2.886-3.232-3.368-5.53C0.794,10.2,1.024,9.565,1.527,9.169C1.82,8.938,2.188,8.811,2.562,8.811
		c0.18,0,0.358,0.029,0.529,0.086L3.342,8.98L3.285,8.722L3.259,8.606C3.128,7.979,3.359,7.345,3.861,6.949
		C4.154,6.718,4.522,6.59,4.896,6.59c0.25,0,0.491,0.054,0.717,0.162c0.365,0.172,1.23,0.522,2.162,0.745l0.224,0.054L7.957,7.324
		C7.644,5.617,7.992,4.041,8.936,2.887C9.88,1.733,11.349,1.071,12.967,1.071 M9.62,9.208C9.501,9.217,9.377,9.221,9.251,9.221
		c-1.96,0-4.268-1.084-4.291-1.095l-0.273-0.13l0.062,0.296c0.243,1.16,0.689,2.198,1.326,3.091
		c-1.723-0.226-3.431-1.029-3.449-1.037l-0.273-0.13l0.062,0.296c0.955,4.551,4.594,6.166,7.42,6.166c2.209,0,4.298-0.91,5.73-2.496
		c1.114-1.234,2.365-3.469,1.993-7.104c-0.046-0.449-0.137-0.879-0.27-1.279c0.563-0.848,1.097-1.447,1.103-1.453l0.202-0.225
		l-0.301-0.024c-0.249-0.02-0.498-0.03-0.741-0.03c-0.402,0-0.801,0.028-1.188,0.082c-0.855-0.991-2.088-1.557-3.396-1.557
		c-1.159,0-2.199,0.458-2.853,1.258c-0.686,0.838-0.907,1.98-0.64,3.303C9.632,7.941,9.682,8.631,9.62,9.208 M12.967,0.921
		c-1.663,0-3.174,0.682-4.147,1.871c-0.975,1.192-1.332,2.807-1.01,4.559c-0.916-0.22-1.774-0.566-2.133-0.735
		C5.428,6.498,5.161,6.44,4.896,6.44c-0.402,0-0.8,0.133-1.128,0.391C3.224,7.259,2.97,7.959,3.113,8.636
		c0.008,0.039,0.017,0.079,0.026,0.118C2.95,8.692,2.755,8.661,2.562,8.661c-0.402,0-0.8,0.133-1.128,0.391
		C0.89,9.48,0.636,10.179,0.778,10.857c0.49,2.334,1.674,4.276,3.424,5.618c1.578,1.21,3.579,1.876,5.633,1.876
		c2.682,0,5.222-1.111,6.971-3.047c1.341-1.486,2.849-4.149,2.415-8.394c-0.027-0.265-0.067-0.526-0.119-0.781
		c0.304-0.406,0.532-0.664,0.534-0.666c0.462-0.515,0.592-1.248,0.335-1.891c-0.256-0.643-0.855-1.085-1.545-1.141
		c-0.293-0.024-0.588-0.036-0.876-0.036c-0.19,0-0.38,0.005-0.569,0.015C15.872,1.455,14.455,0.921,12.967,0.921L12.967,0.921z
		 M9.251,9.371c0.171,0,0.339-0.008,0.503-0.025c0.081-0.59,0.048-1.321-0.134-2.223c-0.58-2.869,1.29-4.381,3.346-4.381
		c1.198,0,2.458,0.512,3.336,1.568c0.4-0.061,0.816-0.093,1.248-0.093c0.238,0,0.481,0.01,0.729,0.03c0,0-0.565,0.631-1.157,1.532
		c0.138,0.398,0.237,0.837,0.286,1.316c0.638,6.227-3.483,9.434-7.573,9.434c-3.22,0-6.421-1.985-7.274-6.047
		c0,0,1.96,0.931,3.84,1.088c-0.697-0.886-1.229-1.984-1.506-3.308C4.895,8.262,7.233,9.371,9.251,9.371L9.251,9.371z"/>
</g>
<path fill="#1D1D1B" d="M65.759,3.297c-0.18-0.256-0.395-0.485-0.638-0.68c-0.585-0.468-1.289-0.715-2.034-0.715H50.721
	c-0.745,0-1.449,0.247-2.034,0.715c-0.244,0.195-0.459,0.424-0.638,0.68c-0.388,0.552-0.592,1.199-0.592,1.87v9.535
	c0,1.8,1.465,3.265,3.265,3.265h12.367c1.8,0,3.265-1.465,3.265-3.265V5.167C66.352,4.495,66.147,3.848,65.759,3.297z M58.058,9.167
	c-0.308,0.308-0.718,0.478-1.154,0.478c-0.436,0-0.846-0.17-1.154-0.478L50.203,3.62c0.166-0.056,0.34-0.085,0.518-0.085h12.367
	c0.178,0,0.352,0.029,0.518,0.085L58.058,9.167z M49.088,5.167c0-0.108,0.011-0.215,0.032-0.32l5.474,5.475
	c0.617,0.617,1.437,0.956,2.309,0.956c0.872,0,1.692-0.34,2.309-0.956l5.475-5.475c0.021,0.105,0.032,0.213,0.032,0.321l0,9.535
	c0,0.9-0.732,1.632-1.632,1.632H50.721c-0.9,0-1.632-0.732-1.632-1.632V5.167z"/>
</svg>
